<svg width="1115" height="408" viewBox="0 0 1115 408" fill="none" xmlns="http://www.w3.org/2000/svg">
<path d="M176.5 38.5H0V95H176.5C208.1 103 217 129.333 217.5 141.5C220.7 189.1 182.833 202 163.5 202.5V257.5C255.5 253.1 274.833 178.333 273 141.5C267 67.5 206.167 42 176.5 38.5Z" fill="#29282F"/>
<path d="M0 204V312C36.4 312 51.5 281 54.5 265.5V204H0Z" fill="#29282F"/>
<path d="M169.5 122H0V174.5H80.5V265.5C74.1 323.5 24.1667 339 0 339.5V393C102.8 387.8 133.833 305.833 136.5 265.5V174.5H169.5C187.9 170.1 191.5 154 191 146.5C190.2 130.1 176.333 123.333 169.5 122Z" fill="#7D45F5"/>
<path d="M413.782 113.557C428.431 113.475 444.91 116.69 463.221 123.2L455.53 152.497C438.522 146.475 424.687 143.464 414.026 143.464C405.4 143.464 398.605 145.173 393.641 148.591C388.676 152.009 386.194 156.647 386.194 162.507C386.194 168.854 388.473 173.9 393.03 177.644C397.669 181.387 406.092 184.846 418.299 188.02C436.284 192.658 449.061 199.087 456.629 207.307C464.197 215.445 467.981 226.675 467.981 240.998C467.981 258.332 462.122 271.638 450.403 280.915C438.766 290.111 422.124 294.709 400.477 294.709C382.817 294.709 363.896 290.721 343.714 282.746L352.747 254.304C363.896 258.291 373.011 261.099 380.091 262.727C387.171 264.273 393.885 265.046 400.232 265.046C409.428 265.046 416.508 263.093 421.473 259.187C426.518 255.199 429.041 249.706 429.041 242.707C429.041 238.231 427.983 234.488 425.867 231.477C423.751 228.465 420.171 225.78 415.125 223.42C410.079 220.979 402.796 218.578 393.274 216.218C377.405 212.393 365.809 206.452 358.484 198.396C351.16 190.339 347.498 179.719 347.498 166.535C347.498 149.689 353.276 136.669 364.832 127.473C376.469 118.195 392.786 113.557 413.782 113.557ZM575.159 287.995C563.847 292.634 553.024 294.953 542.688 294.953C513.88 294.953 499.476 281.2 499.476 253.693V188.264H477.869V162.019H501.917L509.119 124.543H536.707V162.019H572.474V188.264H536.707V248.444C536.707 255.118 537.928 259.878 540.369 262.727C542.892 265.575 547.164 266.999 553.187 266.999C558.313 266.999 563.807 265.982 569.666 263.947L575.159 287.995ZM632.898 246.979C632.898 254.466 634.404 259.919 637.415 263.337C640.426 266.755 645.268 268.464 651.941 268.464C657.801 268.464 663.335 267.162 668.543 264.558C673.833 261.872 678.024 258.169 681.116 253.449V162.019H718.714V293H687.708L683.436 274.689C677.902 281.363 671.391 286.408 663.904 289.826C656.417 293.244 648.157 294.953 639.124 294.953C624.964 294.953 614.14 291.006 606.653 283.112C599.166 275.218 595.423 263.866 595.423 249.055V162.019H632.898V246.979ZM840.662 277.253C835.128 283.275 829.269 287.71 823.084 290.559C816.98 293.326 810.022 294.709 802.21 294.709C784.225 294.709 770.187 289.053 760.096 277.741C750.005 266.429 744.959 250.52 744.959 230.012C744.959 208.202 751.225 191.071 763.758 178.62C776.372 166.169 793.665 159.943 815.638 159.943C821.985 159.943 829.31 160.798 837.61 162.507V105.012H875.208V292.756H846.399L840.662 277.253ZM809.9 268.22C816.411 268.22 822.107 266.389 826.99 262.727C831.954 259.064 835.494 253.978 837.61 247.468V188.264C832.809 187.124 829.106 186.351 826.502 185.944C823.898 185.456 820.968 185.212 817.713 185.212C806.401 185.212 797.734 188.915 791.712 196.32C785.69 203.645 782.679 214.468 782.679 228.791C782.679 255.158 791.753 268.301 809.9 268.22ZM909.021 109.284H946.497V143.464H909.021V109.284ZM909.021 163.483H946.497V293H909.021V163.483ZM1039.39 158.967C1060.96 158.967 1077.48 164.867 1088.95 176.667C1100.43 188.386 1106.17 205.231 1106.17 227.204C1106.17 249.177 1100.43 266.104 1088.95 277.985C1077.48 289.867 1060.96 295.808 1039.39 295.808C1018.07 295.808 1001.63 289.908 990.076 278.107C978.52 266.226 972.742 249.258 972.742 227.204C972.742 205.231 978.479 188.386 989.954 176.667C1001.43 164.867 1017.91 158.967 1039.39 158.967ZM1039.39 187.043C1020.11 186.962 1010.46 200.349 1010.46 227.204C1010.46 254.06 1020.11 267.487 1039.39 267.487C1058.76 267.487 1068.45 254.06 1068.45 227.204C1068.45 200.349 1058.76 186.962 1039.39 187.043Z" fill="#29282F"/>
</svg>
